<svg id="iconce.com" width="256" height="256" viewBox="0 0 256 256" fill="none" xmlns="http://www.w3.org/2000/svg" xmlns:xlink="http://www.w3.org/1999/xlink"><defs><linearGradient id="r5" gradientUnits="userSpaceOnUse" gradientTransform="rotate(45)" style="transform-origin:center center"><stop stop-color="#F5AF19"/><stop offset="1" stop-color="#F12711"/></linearGradient><radialGradient id="r6" cx="0" cy="0" r="1" gradientUnits="userSpaceOnUse" gradientTransform="translate(256) rotate(90) scale(512)"><stop stop-color="white"/><stop offset="1" stop-color="white" stop-opacity="0"/></radialGradient></defs><rect id="r4" width="256" height="256" x="0" y="0" rx="64" fill="url(#r5)" stroke="#FFFFFF" stroke-width="0" stroke-opacity="100%" paint-order="stroke"/><svg xmlns="http://www.w3.org/2000/svg" width="170" height="170" viewBox="0 0 24 24" fill="none" stroke="#FFFFFF" stroke-width="2" stroke-linecap="round" stroke-linejoin="round" class="text-white" alignment-baseline="middle" x="43" y="43"><path d="M22 17a2 2 0 0 1-2 2H4a2 2 0 0 1-2-2V9.5C2 7 4 5 6.5 5H18c2.2 0 4 1.8 4 4v8Z"/><polyline points="15,9 18,9 18,11"/><path d="M6.5 5C9 5 11 7 11 9.5V17a2 2 0 0 1-2 2v0"/><line x1="6" x2="7" y1="10" y2="10"/></svg></svg>